<svg width="121" height="121" viewBox="0 0 121 121" fill="none" xmlns="http://www.w3.org/2000/svg">
<circle cx="60.331" cy="60.331" r="58.831" stroke="#2F6CB7" stroke-width="1"/>
<path d="M32.0004 77.0001C32.5004 77.6001 32.9004 78.3001 32.9004 79.2001C32.9004 80.0001 32.6004 80.8001 32.0004 81.4001C31.5004 81.9001 30.7004 82.3001 29.9004 82.3001C29.1004 82.3001 28.3004 81.9001 27.8004 81.4001C27.2004 80.8001 26.9004 80.1001 26.9004 79.2001C26.9004 78.4001 27.2004 77.6001 27.8004 77.0001C28.3004 76.4001 29.1004 76.1001 29.9004 76.1001C30.2004 76.1001 30.5004 76.1001 30.8004 76.2001C31.0004 76.3001 31.2004 76.3001 31.3004 76.4001C31.5004 76.5001 31.6004 76.6001 31.8004 76.7001C31.8004 76.9001 31.9004 76.9001 32.0004 77.0001Z" stroke="#2F6CB7" stroke-width="1.3" stroke-miterlimit="10" stroke-linecap="round" stroke-linejoin="round"/>
<path d="M93.8 38.2C94.3 38.7 94.7 39.5 94.7 40.3C94.7 41.1 94.4 41.9 93.8 42.5C93.3 43 92.5 43.3 91.7 43.3C91.7 43.3 91.7 43.3 91.6 43.3C91.5 43.3 91.3 43.3 91.2 43.3C91.1 43.3 90.9 43.2 90.8 43.2C90.5 43.1 90.3 43 90 42.8C89.9 42.7 89.8 42.6 89.6 42.5C89.5 42.4 89.4 42.3 89.3 42.2C89.1 42 89 41.7 88.8 41.5C88.6 41.1 88.5 40.7 88.5 40.3C88.5 39.8 88.6 39.3 88.9 38.8C89 38.5 89.2 38.3 89.4 38.1C90 37.5 90.7 37.2 91.6 37.2C92.5 37.4 93.3 37.7 93.8 38.2Z" stroke="#2F6CB7" stroke-width="1.3" stroke-miterlimit="10" stroke-linecap="round" stroke-linejoin="round"/>
<path d="M93.8 77.0001C94.3 77.6001 94.7 78.3001 94.7 79.2001C94.7 80.0001 94.4 80.8001 93.8 81.4001C93.3 81.9001 92.5 82.3001 91.7 82.3001C90.9 82.3001 90.1 81.9001 89.5 81.4001C89.2 81.1001 89 80.8001 88.9 80.5001C88.9 80.5001 88.9 80.4001 88.8 80.3001C88.8 80.2001 88.8 80.2001 88.7 80.1001C88.7 80.0001 88.6 79.9001 88.6 79.8001C88.6 79.6001 88.5 79.4001 88.5 79.2001C88.5 78.4001 88.8 77.6001 89.4 77.0001C90 76.4001 90.7 76.1001 91.6 76.1001C92.5 76.1001 93.3 76.5001 93.8 77.0001Z" stroke="#2F6CB7" stroke-width="1.3" stroke-miterlimit="10" stroke-linecap="round" stroke-linejoin="round"/>
<path d="M90.8002 45.1001V74.4001C90.7002 74.4001 90.6002 74.4001 90.5002 74.5001H90.4002C90.3002 74.5001 90.2002 74.6001 90.1002 74.6001C89.7002 74.7001 89.3002 74.9001 89.0002 75.1001C88.9002 75.2001 88.8002 75.2001 88.7002 75.3001C88.6002 75.4001 88.4002 75.5001 88.3002 75.7001C87.4002 76.6001 86.9002 77.8001 86.9002 79.1001C86.9002 79.3001 86.9002 79.4001 86.9002 79.6001C86.9002 79.8001 86.9002 80.0001 87.0002 80.2001L64.9002 90.0001C64.8002 89.9001 64.7002 89.7001 64.6002 89.6001C64.5002 89.5001 64.4002 89.3001 64.3002 89.2001L64.2002 89.1001C64.1002 89.0001 64.0002 89.0001 63.9002 88.9001C63.8002 88.8001 63.6002 88.7001 63.5002 88.6001C63.4002 88.5001 63.2002 88.4001 63.1002 88.3001C63.0002 88.2001 62.9002 88.2001 62.8002 88.1001C62.5002 87.9001 62.1002 87.8001 61.7002 87.7001V54.6001L87.8002 43.1001C88.0002 43.3001 88.2002 43.6001 88.4002 43.8001C88.5002 43.9001 88.7002 44.1001 88.8002 44.2001C88.9002 44.3001 89.0002 44.3001 89.1002 44.4001C89.5002 44.7001 90.0002 44.9001 90.4002 45.0001C90.5002 45.1001 90.7002 45.1001 90.8002 45.1001Z" stroke="#2F6CB7" stroke-width="1.3" stroke-miterlimit="10" stroke-linecap="round" stroke-linejoin="round"/>
<path d="M65.7004 30.4L87.0004 38.9C86.9004 39.3 86.8004 39.8 86.8004 40.3C86.8004 40.7 86.8004 41.1 86.9004 41.4L60.8004 53.1L34.4004 41.4C34.6004 40.9 34.7004 40.4 34.7004 39.8C34.7004 39.5 34.7004 39.2 34.6004 39L57.6004 30.3C57.7004 30.4 57.8004 30.6 57.9004 30.7C58.0004 30.9 58.1004 31 58.2004 31.1L58.3004 31.2C58.5004 31.4 58.7004 31.6 59.0004 31.8C59.1004 31.9 59.3004 32 59.4004 32C59.5004 32.1 59.7004 32.1 59.8004 32.2C59.9004 32.2 60.0004 32.3 60.2004 32.3C60.3004 32.3 60.3004 32.3 60.4004 32.4C60.5004 32.4 60.6004 32.5 60.7004 32.5C60.7004 32.5 60.7004 32.5 60.8004 32.5C60.9004 32.5 61.1004 32.5 61.2004 32.6C61.4004 32.6 61.5004 32.6 61.7004 32.6C61.8004 32.6 62.0004 32.6 62.1004 32.6C62.8004 32.5 63.4004 32.4 64.0004 32C64.1004 31.9 64.2004 31.9 64.3004 31.8C64.6004 31.6 64.8004 31.4 65.0004 31.2H65.1004C65.4004 30.9 65.6004 30.7 65.7004 30.4Z" stroke="#2F6CB7" stroke-width="1.3" stroke-miterlimit="10" stroke-linecap="round" stroke-linejoin="round"/>
<path d="M64.6996 27.7999C64.6996 28.1999 64.5996 28.5999 64.4996 28.9999C64.3996 29.1999 64.2996 29.3999 64.1996 29.5999C64.0996 29.6999 63.9996 29.8999 63.8996 29.9999C63.7996 30.0999 63.6996 30.1999 63.5996 30.1999C63.4996 30.2999 63.2996 30.3999 63.1996 30.4999C63.1996 30.4999 63.0996 30.5999 62.9996 30.5999C62.7996 30.6999 62.5996 30.7999 62.2996 30.7999C62.1996 30.7999 62.0996 30.7999 61.9996 30.7999C61.8996 30.7999 61.7996 30.7999 61.6996 30.7999C61.5996 30.7999 61.3996 30.7999 61.2996 30.7999C61.2996 30.7999 61.2996 30.7999 61.1996 30.7999C61.0996 30.7999 60.9996 30.7999 60.8996 30.6999H60.7996C60.6996 30.6999 60.6996 30.6999 60.5996 30.5999C60.4996 30.5999 60.3996 30.4999 60.2996 30.4999C60.1996 30.4999 60.1996 30.3999 60.0996 30.3999C60.0996 30.3999 59.9996 30.3999 59.9996 30.2999C59.8996 30.2999 59.8996 30.1999 59.7996 30.1999C59.6996 30.0999 59.5996 29.9999 59.4996 29.9999C59.3996 29.8999 59.2996 29.7999 59.1996 29.6999C59.0996 29.5999 59.0996 29.4999 58.9996 29.4999L58.8996 29.3999C58.8996 29.2999 58.7996 29.1999 58.7996 29.0999C58.6996 28.6999 58.5996 28.3999 58.5996 27.8999C58.5996 27.0999 58.8996 26.2999 59.4996 25.7999C59.9996 25.1999 60.7996 24.8999 61.6996 24.8999C62.4996 24.8999 63.2996 25.1999 63.7996 25.7999C64.3996 26.1999 64.6996 26.9999 64.6996 27.7999Z" stroke="#2F6CB7" stroke-width="1.3" stroke-miterlimit="10" stroke-linecap="round" stroke-linejoin="round"/>
<path d="M63.6002 91.4999C63.7002 91.7999 63.8002 92.1999 63.8002 92.4999C63.8002 93.2999 63.5002 94.0999 62.9002 94.6999C62.4002 95.0999 61.8002 95.4999 61.2002 95.4999H60.4002C59.7002 95.3999 59.1002 95.0999 58.6002 94.5999C58.0002 93.9999 57.7002 93.2999 57.7002 92.3999C57.7002 92.0999 57.7002 91.7999 57.8002 91.4999C57.8002 91.4999 57.9002 91.3999 57.9002 91.2999C58.0002 90.9999 58.2002 90.6999 58.3002 90.4999C58.4002 90.3999 58.5002 90.2999 58.6002 90.1999C58.7002 90.0999 58.8002 89.9999 59.0002 89.8999C59.1002 89.7999 59.2002 89.6999 59.4002 89.6999C59.5002 89.5999 59.7002 89.5999 59.8002 89.4999C59.9002 89.4999 60.1002 89.3999 60.2002 89.3999C60.2002 89.3999 60.2002 89.3999 60.3002 89.3999C60.4002 89.3999 60.6002 89.3999 60.7002 89.3999C60.9002 89.3999 61.1002 89.3999 61.3002 89.4999C61.4002 89.4999 61.5002 89.4999 61.6002 89.5999C61.7002 89.5999 61.8002 89.6999 61.9002 89.6999C62.0002 89.6999 62.0002 89.6999 62.1002 89.7999C62.2002 89.8999 62.3002 89.8999 62.4002 89.9999C62.5002 89.9999 62.5002 90.0999 62.6002 90.0999C62.6002 90.0999 62.7002 90.0999 62.7002 90.1999L62.8002 90.2999C62.9002 90.3999 63.0002 90.4999 63.0002 90.5999C63.1002 90.6999 63.1002 90.7999 63.2002 90.8999C63.2002 90.9999 63.3002 90.9999 63.3002 91.0999C63.5002 91.1999 63.6002 91.2999 63.6002 91.4999ZM63.6002 91.4999C63.6002 91.3999 63.6002 91.4999 63.6002 91.4999Z" stroke="#2F6CB7" stroke-width="1.3" stroke-miterlimit="10" stroke-linecap="round" stroke-linejoin="round"/>
<path d="M59.9002 54.6001V87.8001C59.7002 87.8001 59.6002 87.9001 59.4002 87.9001C59.2002 87.9001 59.1002 88.0001 59.0002 88.1001C58.4002 88.3001 57.9002 88.7001 57.5002 89.1001L57.4002 89.2001C57.2002 89.4001 57.0002 89.7001 56.8002 90.0001L34.5002 80.3001V80.1001C34.6002 79.8001 34.6002 79.5001 34.6002 79.2001C34.6002 77.9001 34.1002 76.7001 33.2002 75.8001C32.8002 75.4001 32.2002 75.0001 31.6002 74.8001C31.4002 74.7001 31.3002 74.7001 31.1002 74.6001C31.0002 74.6001 30.9002 74.5001 30.8002 74.5001H30.7002V45.1001C31.3002 45.0001 31.9002 44.7001 32.4002 44.4001C32.9002 44.1001 33.4002 43.6001 33.7002 43.1001L59.9002 54.6001Z" stroke="#2F6CB7" stroke-width="1.3" stroke-miterlimit="10" stroke-linecap="round" stroke-linejoin="round"/>
<path d="M32.7004 38.7001C32.8004 39.0001 32.9004 39.4001 32.9004 39.8001C32.9004 40.6001 32.6004 41.4001 32.0004 41.9001C31.5004 42.4001 30.7004 42.7001 29.9004 42.7001C29.1004 42.7001 28.3004 42.4001 27.8004 41.8001C27.2004 41.2001 26.9004 40.5001 26.9004 39.7001C26.9004 38.8001 27.2004 38.1001 27.8004 37.5001C28.3004 37.0001 29.1004 36.6001 29.9004 36.6001C30.7004 36.6001 31.5004 36.9001 32.1004 37.5001C32.3004 38.0001 32.5004 38.3001 32.7004 38.7001Z" stroke="#2F6CB7" stroke-width="1.3" stroke-miterlimit="10" stroke-linecap="round" stroke-linejoin="round"/>
</svg>
